<svg width="32" height="32" viewBox="0 0 32 32" fill="none" xmlns="http://www.w3.org/2000/svg">
<path d="M25.2371 0H6.76306C3.02796 0 0 3.0279 0 6.763V25.237C0 28.9721 3.02796 32 6.76306 32H25.2371C28.9722 32 32 28.9721 32 25.237V6.763C32 3.0279 28.9722 0 25.2371 0Z" fill="url(#paint0_linear_10:3)"/>
<path d="M15.8267 6.02251C15.7477 6.05251 15.6763 6.10011 15.6187 6.16118C13.8892 7.89063 12.9646 9.71923 12.5332 12.0202C12.3714 12.8831 12.2816 13.8646 12.2211 14.8978H12.4985C12.3872 14.9356 12.2884 15.0094 12.2211 15.1058L8.89287 19.5434C8.62937 19.8722 8.92285 20.4583 9.34355 20.4447H12.1171C12.1173 20.6374 12.1171 20.8005 12.1171 20.9994C12.1172 21.2899 12.3814 21.5541 12.6718 21.5541H13.608C13.4924 21.592 13.3923 21.6668 13.3234 21.767C13.2545 21.8672 13.2205 21.9874 13.2265 22.1089V23.2182C13.2254 23.2918 13.239 23.3648 13.2664 23.433C13.2938 23.5013 13.3344 23.5633 13.386 23.6157C13.4376 23.6681 13.4992 23.7097 13.5671 23.7381C13.6349 23.7665 13.7076 23.7811 13.7812 23.7811C13.8547 23.7811 13.9276 23.7665 13.9954 23.7381C14.0632 23.7097 14.1247 23.6681 14.1763 23.6157C14.2279 23.5633 14.2685 23.5013 14.2959 23.433C14.3233 23.3648 14.3369 23.2918 14.3359 23.2182V22.1089C14.3419 21.9874 14.3078 21.8673 14.2389 21.7671C14.17 21.6668 14.0702 21.592 13.9546 21.5541H15.792C15.6829 21.5103 15.5905 21.433 15.5282 21.3333C15.4659 21.2336 15.4369 21.1167 15.4454 20.9994V17.6712C15.4354 17.5296 15.4803 17.3895 15.5706 17.2798C15.6609 17.1702 15.7898 17.0993 15.9307 17.0819C16.0122 17.0714 16.0949 17.0792 16.173 17.1046C16.2511 17.13 16.3225 17.1724 16.3822 17.2288C16.442 17.2852 16.4884 17.3541 16.5182 17.4306C16.5481 17.5072 16.5606 17.5893 16.5549 17.6712V20.9994C16.5609 21.1209 16.5267 21.241 16.4578 21.3412C16.3889 21.4415 16.289 21.5163 16.1734 21.5541H18.0455C17.9299 21.592 17.83 21.6668 17.7612 21.7671C17.6923 21.8673 17.6582 21.9874 17.6642 22.1089V25.4371C17.6632 25.5106 17.6767 25.5836 17.7041 25.6518C17.7315 25.7201 17.7722 25.7822 17.8238 25.8345C17.8754 25.8869 17.9369 25.9285 18.0047 25.9569C18.0725 25.9853 18.1454 25.9999 18.2189 25.9999C18.2924 25.9999 18.3652 25.9853 18.433 25.9569C18.5009 25.9285 18.5624 25.8869 18.6141 25.8345C18.6657 25.7822 18.7063 25.7201 18.7337 25.6518C18.7611 25.5836 18.7747 25.5106 18.7736 25.4371V22.1089C18.7796 21.9874 18.7456 21.8672 18.6767 21.767C18.6078 21.6668 18.5077 21.592 18.3921 21.5541H19.3283C19.6187 21.5541 19.8829 21.2899 19.883 20.9994C19.883 20.8006 19.8828 20.6374 19.883 20.4447H22.6565C23.0776 20.458 23.3707 19.8722 23.1072 19.5434L19.779 15.1058C19.648 14.9274 19.4035 14.8411 19.1896 14.8978C18.9478 14.9599 18.7657 15.2029 18.7736 15.4524V16.0071H13.2265V15.4524C13.2405 15.1837 13.0328 14.954 12.7758 14.8978H19.1896H19.779C19.718 13.8643 19.6286 12.8833 19.4668 12.0202C19.0354 9.71878 18.111 7.89074 16.3814 6.16118C16.24 6.01951 16.0182 5.96404 15.8267 6.02251ZM16.1734 21.5541C16.0961 21.5247 16.0132 21.513 15.9307 21.5198C15.8832 21.5252 15.8366 21.5367 15.792 21.5541C15.6829 21.5979 15.5905 21.6753 15.5282 21.775C15.4659 21.8747 15.4369 21.9916 15.4454 22.1089V24.3277C15.4443 24.4012 15.4579 24.4742 15.4853 24.5424C15.5127 24.6106 15.5534 24.6728 15.605 24.7251C15.6566 24.7775 15.7181 24.8191 15.7859 24.8475C15.8538 24.8758 15.9265 24.8905 16 24.8905C16.0736 24.8905 16.1464 24.8758 16.2143 24.8475C16.2821 24.8191 16.3436 24.7775 16.3952 24.7251C16.4468 24.6728 16.4875 24.6106 16.5149 24.5424C16.5423 24.4742 16.5559 24.4012 16.5549 24.3277V22.1089C16.5609 21.9874 16.5267 21.8672 16.4578 21.767C16.3889 21.6668 16.289 21.592 16.1734 21.5541V21.5541ZM16 10.4601C16.9125 10.4601 17.6642 11.2117 17.6642 12.1242C17.6642 13.0367 16.9125 13.7883 16 13.7883C15.0876 13.7883 14.3359 13.0367 14.3359 12.1242C14.3359 11.2117 15.0876 10.4601 16 10.4601ZM16 11.5695C15.6871 11.5695 15.4454 11.8112 15.4454 12.1242C15.4454 12.4371 15.6871 12.6789 16 12.6789C16.313 12.6789 16.5549 12.4371 16.5549 12.1242C16.5549 11.8112 16.313 11.5695 16 11.5695Z" fill="white"/>
<defs>
<linearGradient id="paint0_linear_10:3" x1="4.03147" y1="0.256695" x2="29.075" y2="31.1974" gradientUnits="userSpaceOnUse">
<stop stop-color="#00C6FB"/>
<stop offset="1" stop-color="#005BEA"/>
</linearGradient>
</defs>
</svg>
